<svg width="15" height="12" viewBox="0 0 15 12" fill="none" xmlns="http://www.w3.org/2000/svg">
<path d="M5.83328 1.99996C4.68401 1.99996 3.58181 2.45651 2.76916 3.26916C1.9565 4.08182 1.49995 5.18402 1.49995 6.33329C1.49995 7.48256 1.9565 8.58476 2.76916 9.39742C3.58181 10.2101 4.68401 10.6666 5.83328 10.6666H10.5C10.9207 10.6662 11.3367 10.5773 11.7209 10.4056C12.1051 10.234 12.4489 9.98343 12.7299 9.67025C13.0109 9.35706 13.2229 8.98827 13.3521 8.58781C13.4813 8.18735 13.5249 7.76419 13.4799 7.34582C13.4349 6.92745 13.3024 6.52322 13.091 6.1594C12.8795 5.79557 12.594 5.48029 12.2528 5.23403C11.9116 4.98778 11.5224 4.81605 11.1105 4.73001C10.6986 4.64397 10.2732 4.64554 9.86195 4.73463C9.5415 3.92779 8.98617 3.23576 8.26787 2.74818C7.54958 2.2606 6.70143 1.99994 5.83328 1.99996ZM10.5 12H5.83328C4.84677 11.9997 3.87742 11.742 3.02109 11.2521C2.16477 10.7623 1.45115 10.0575 0.950827 9.20723C0.450503 8.35701 0.180807 7.3909 0.168416 6.40447C0.156025 5.41804 0.401369 4.44546 0.880179 3.58294C1.35899 2.72041 2.05468 1.99783 2.89843 1.48667C3.74218 0.975502 4.70475 0.693463 5.69095 0.668448C6.67714 0.643434 7.65278 0.876309 8.52136 1.34404C9.38994 1.81177 10.1214 2.49815 10.6433 3.33529C11.7817 3.36974 12.8609 3.85103 13.6472 4.67503C14.4335 5.49904 14.8638 6.59949 14.845 7.73832C14.8261 8.87714 14.3597 9.96276 13.5465 10.7603C12.7334 11.5578 11.6389 12.0032 10.5 12Z" fill="white" fill-opacity="0.95"/>
</svg>
